<svg width="100" height="100" viewBox="0 0 100 100" fill="none" xmlns="http://www.w3.org/2000/svg">
<g clip-path="url(#clip0_3_51)">
<path fill-rule="evenodd" clip-rule="evenodd" d="M96.6666 66.6667C96.7799 61.6017 96.0054 56.5561 94.3783 51.7583C94.01 50.7679 93.7659 49.7355 93.6516 48.685C93.4075 46.3539 93.3012 44.0103 93.3333 41.6667C93.3333 38.3333 91.6666 36.6667 90 36.6667C87.4466 36.6667 85.8733 38.6283 85.2766 44.0367C85.0949 45.6231 83.8049 46.8527 82.2116 46.9583C69.8066 47.7667 55.1666 50 48.3333 50C41.7183 50 35.1 38.4533 27.6516 33.69C25.055 29.3133 21.095 25 20 25C18.905 25 17.7916 29.3933 17.1666 32.3567C11.1 34.3767 9.70996 40.29 8.33329 41.6667C6.66663 43.3333 1.66663 45 1.66663 50C1.66663 58.3333 11.6666 61.6667 11.6666 61.6667C11.6666 61.6667 16.6666 55 20 55C28.3333 55 23.3333 66.6667 23.3333 70C23.3333 73.3333 25 75 25 78.3333C25 83.3333 16.5283 98.3333 25 98.3333C28.3333 98.3333 30 96.6667 31.6666 91.6667C33.3333 86.6667 38.3333 80 43.3333 80C48.3333 80 50 81.6667 55 81.6667C65 81.6667 68.3333 76.6667 75 76.6667C81.6666 76.6667 88.3333 83.3333 88.3333 86.6667C88.3333 88.3333 86.6666 90 86.6666 91.6667C86.4902 93.4832 87.1356 95.2833 88.4261 96.5738C89.7166 97.8643 91.5168 98.5098 93.3333 98.3333C98.3333 98.3333 98.3333 91.6667 98.3333 85C98.3333 73.3333 96.6666 73.3333 96.6666 66.6667Z" stroke="black" stroke-width="2" stroke-linecap="round" stroke-linejoin="round"/>
<path d="M65.3417 55.2533C67.3733 55.0317 69.5083 54.7983 71.675 54.575" stroke="black" stroke-width="2" stroke-linecap="round" stroke-linejoin="round"/>
<path d="M48.3333 56.6667C50.9399 56.6667 54.3649 56.395 58.3333 56" stroke="black" stroke-width="2" stroke-linecap="round" stroke-linejoin="round"/>
<path d="M15.3833 42.9417C15.6283 42.485 15.8616 42.06 16.095 41.6667" stroke="black" stroke-width="2" stroke-linecap="round" stroke-linejoin="round"/>
<path d="M11.7666 18.3333L8.55493 13.5133C8.53062 13.4779 8.52813 13.4318 8.54848 13.3939C8.56882 13.356 8.6086 13.3327 8.6516 13.3333H13.2166C13.2596 13.334 13.2994 13.3107 13.3197 13.2728C13.3401 13.2349 13.3376 13.1888 13.3133 13.1533L10.0999 8.33334" stroke="black" stroke-width="2" stroke-linecap="round" stroke-linejoin="round"/>
<path d="M29.5766 1.66667L25.3333 5.60334C25.3021 5.63257 25.2894 5.6765 25.3002 5.71786C25.3109 5.75921 25.3435 5.79137 25.3849 5.80167L29.8249 6.86667C29.8667 6.87653 29.8996 6.9085 29.9108 6.94992C29.9219 6.99134 29.9094 7.03554 29.8783 7.06501L25.6249 11" stroke="black" stroke-width="2" stroke-linecap="round" stroke-linejoin="round"/>
</g>
<defs>
<clipPath id="clip0_3_51">
<rect width="100" height="100" fill="white"/>
</clipPath>
</defs>
</svg>
