<svg width="100" height="100" viewBox="0 0 100 100" fill="none" xmlns="http://www.w3.org/2000/svg">
<g clip-path="url(#clip0_3_68)">
<path fill-rule="evenodd" clip-rule="evenodd" d="M23.5334 69.78C21.7034 69.4846 20.2239 68.1302 19.7684 66.3333C18.1267 59.1533 8.33337 54.06 8.33337 43.3717C8.33337 25.0383 33.3334 11.705 70 11.705C75 11.705 80 15.0383 80 23.3717C80 35.0383 70 41.705 70 51.705C70 51.705 68.3334 53.3717 63.3334 53.3717C61.6667 53.3717 60 51.705 60 48.3717C60 42.8333 66.9 32.695 69.2367 26.555C69.4995 25.8506 69.3802 25.0604 68.9211 24.465C68.462 23.8696 67.7281 23.5533 66.98 23.6283C56.1667 24.6667 20 29.1967 20 43.3717C20 50.0383 31.6667 55.0383 31.6667 66.705C31.6667 66.705 31.6667 70.0383 26.6667 70.0383C25.6166 70.0459 24.568 69.9595 23.5334 69.78Z"  stroke-width="2" stroke-linecap="round" stroke-linejoin="round"/>
<path d="M40 21.1533C43.2855 20.1593 46.6241 19.3497 50 18.7283"  stroke-width="2" stroke-linecap="round" stroke-linejoin="round"/>
<path d="M26.6666 26.805C28.2885 25.8695 29.9574 25.0178 31.6666 24.2533"  stroke-width="2" stroke-linecap="round" stroke-linejoin="round"/>
<path fill-rule="evenodd" clip-rule="evenodd" d="M70.54 47.71C70.1895 49.0147 70.008 50.3591 70 51.71C70 51.71 68.3333 53.3767 63.3333 53.3767C61.6666 53.3767 60 51.71 60 48.3767C60.0641 46.9658 60.3516 45.5741 60.8516 44.2533L54.2916 41.91C53.6204 41.6703 52.8914 41.6447 52.205 41.8367C42.9931 44.381 34.2748 48.4568 26.415 53.8933C29.6324 57.4041 31.4942 61.9461 31.6666 66.705C31.6666 66.705 31.6666 70.0383 26.6666 70.0383C25.6166 70.0459 24.5679 69.9595 23.5333 69.78C21.7033 69.4846 20.2238 68.1302 19.7683 66.3333C19.2824 64.5171 18.4561 62.8097 17.3333 61.3017C12.0484 66.1553 7.67548 71.9163 4.42163 78.3117C51.5883 78.3117 95.3716 56.5817 95.3716 56.5817L70.54 47.71Z"  stroke-width="2" stroke-linecap="round" stroke-linejoin="round"/>
<path fill-rule="evenodd" clip-rule="evenodd" d="M98.2517 69.445L95.3717 56.5817L70.5383 47.71C70.1879 49.0147 70.0064 50.3591 69.9983 51.71C69.9983 51.71 68.3317 53.3767 63.3317 53.3767C61.665 53.3767 59.9983 51.71 59.9983 48.3767C60.0625 46.9658 60.3499 45.5741 60.85 44.2533L54.29 41.91C53.6188 41.6703 52.8897 41.6447 52.2033 41.8367C42.9914 44.381 34.2732 48.4568 26.4133 53.8933C29.6313 57.4039 31.4937 61.9458 31.6667 66.705C31.6667 66.705 31.6667 70.0383 26.6667 70.0383C25.6166 70.0459 24.568 69.9595 23.5333 69.78C21.7034 69.4846 20.2238 68.1302 19.7683 66.3333C19.2824 64.5171 18.4561 62.8097 17.3333 61.3017C12.0484 66.1554 7.67551 71.9163 4.42167 78.3117L1.71333 94.44C1.55454 95.4288 1.84486 96.4369 2.50524 97.1898C3.16562 97.9427 4.12728 98.3619 5.12833 98.3333C56.705 97.3617 88.9617 78.1883 96.8483 72.9433C97.9973 72.1819 98.5559 70.7894 98.2517 69.445Z"  stroke-width="2" stroke-linecap="round" stroke-linejoin="round"/>
<path d="M16.6667 18.3333C16.6667 15 13.3334 15 13.3334 10"  stroke-width="2" stroke-linecap="round" stroke-linejoin="round"/>
<path d="M20 10C20 6.66667 16.6666 6.66667 16.6666 1.66667"  stroke-width="2" stroke-linecap="round" stroke-linejoin="round"/>
</g>
<defs>
<clipPath id="clip0_3_68">
<rect width="100" height="100" fill="white"/>
</clipPath>
</defs>
</svg>
