<svg width="100" height="100" viewBox="0 0 100 100" fill="none" xmlns="http://www.w3.org/2000/svg">
<path fill-rule="evenodd" clip-rule="evenodd" d="M13.9672 97.655C9.92467 97.0851 6.41516 94.7943 4.50519 91.479C2.59523 88.1636 2.51034 84.2151 4.27632 80.8333C8.39451 73.5 17.7436 71.9683 32.7272 61.6667C38.0921 58.1973 41.4389 52.6751 41.8181 46.6667C41.8181 41.6667 40 40 40 35C40.047 33.3439 40.3878 31.7058 41.0091 30.15C41.178 29.7003 41.5497 29.3389 42.0295 29.1577C42.5093 28.9766 43.0508 28.9932 43.5163 29.2033C46.9411 30.781 50.7128 31.6234 54.5454 31.6667C61.8181 31.6667 80 28.3333 80 20C80 6.66667 85.4545 1.66667 92.7272 1.66667C95.6651 1.82508 98.009 3.97359 98.1818 6.66667C98.1818 16.6667 89.0909 20 89.0909 28.3333C89.0909 28.3333 94.5454 33.3333 94.5454 35C94.5454 40 89.0909 41.6667 89.0909 46.6667C89.0909 53.3333 92.7272 56.6667 92.7272 65C92.5465 68.9347 91.9374 72.843 90.9091 76.6667L78.1818 81.6667C78.1818 81.6667 75.0272 78.9467 72.7272 80C61.8181 85 54.5454 98.3333 23.6363 98.3333C20.3984 98.3522 17.1643 98.1253 13.9672 97.655Z" stroke="black" stroke-width="2" stroke-linecap="round" stroke-linejoin="round"/>
<path d="M56.4182 83.3333C44.0855 89.6667 31.8618 91.6667 16.3636 91.6667C11.5734 91.6677 6.91075 90.2514 3.06909 87.6283" stroke="black" stroke-width="2" stroke-linecap="round" stroke-linejoin="round"/>
<path d="M90.1055 52.7617C86.2473 56.0183 81.1055 60.2917 80 63.3333" stroke="black" stroke-width="2" stroke-linecap="round" stroke-linejoin="round"/>
<path fill-rule="evenodd" clip-rule="evenodd" d="M47.2726 55C50.0756 55.5506 52.784 56.4477 55.3235 57.6667C55.9932 58.0326 56.8461 57.949 57.4163 57.4617C67.0417 49 63.9417 35 72.7272 35C78.1817 35 83.8181 39.915 87.2726 38.3333C89.7885 37.1896 92.1018 35.7046 94.1344 33.9283C92.6644 31.9115 90.9745 30.0369 89.0908 28.3333C89.0908 20 98.1817 16.6667 98.1817 6.66667C98.0089 3.97359 95.6651 1.82508 92.7272 1.66667C85.4545 1.66667 79.9999 6.66667 79.9999 20C79.9999 28.3333 61.8181 31.6667 54.5454 31.6667C50.7127 31.6234 46.9411 30.781 43.5163 29.2033C43.0508 28.9932 42.5092 28.9766 42.0294 29.1577C41.5497 29.3389 41.178 29.7003 41.009 30.15C40.3878 31.7058 40.047 33.3439 39.9999 35C39.9999 40 41.8181 41.6667 41.8181 46.6667C41.7218 49.3212 40.9656 51.9206 39.6072 54.2667C42.1863 54.2035 44.7633 54.45 47.2726 55Z" stroke="black" stroke-width="2" stroke-linecap="round" stroke-linejoin="round"/>
<path d="M63.6363 61.6667C64.6405 61.6667 65.4545 60.9205 65.4545 60C65.4545 59.0795 64.6405 58.3333 63.6363 58.3333C62.6321 58.3333 61.8181 59.0795 61.8181 60C61.8181 60.9205 62.6321 61.6667 63.6363 61.6667Z" fill="black"/>
<path d="M69.0909 55C70.095 55 70.9091 54.2538 70.9091 53.3333C70.9091 52.4129 70.095 51.6667 69.0909 51.6667C68.0867 51.6667 67.2727 52.4129 67.2727 53.3333C67.2727 54.2538 68.0867 55 69.0909 55Z" fill="black"/>
<path d="M72.7272 48.3333C73.7314 48.3333 74.5454 47.5871 74.5454 46.6667C74.5454 45.7462 73.7314 45 72.7272 45C71.7231 45 70.9091 45.7462 70.9091 46.6667C70.9091 47.5871 71.7231 48.3333 72.7272 48.3333Z" fill="black"/>
</svg>
